<?xml version="1.0" encoding="utf-8"?>
<!-- Generator: Adobe Illustrator 24.1.3, SVG Export Plug-In . SVG Version: 6.00 Build 0)  -->
<svg version="1.1" id="Layer_1" xmlns="http://www.w3.org/2000/svg" xmlns:xlink="http://www.w3.org/1999/xlink" x="0px" y="0px"
	 viewBox="0 0 32 32" style="enable-background:new 0 0 32 32;" xml:space="preserve">
<style type="text/css">
	.st0{fill:#FFFFFF;}
</style>
<g id="_x36__6_">
	<g>
		<path class="st0" d="M21.4,19.3v-7.1c0-4.9-4-8.9-8.9-8.9s-8.9,4-8.9,8.9v7.1L0,26.4h8.1c0.4,2.1,2.2,3.6,4.4,3.6s3.9-1.5,4.4-3.6
			H25L21.4,19.3z M12.5,28.2c-1.2,0-2.1-0.7-2.5-1.8h5C14.6,27.5,13.7,28.2,12.5,28.2z M2.7,24.6l2.7-5.4v-7.1C5.4,8.2,8.6,5,12.5,5
			s7.1,3.2,7.1,7.1v7.1l2.7,5.4H2.7z"/>
	</g>
</g>
</svg>
